<svg width="238" height="45" viewBox="0 0 238 45" fill="none" xmlns="http://www.w3.org/2000/svg">
<path d="M25.3355 36C24.9982 34.896 24.6149 33.7613 24.1855 32.596C23.7869 31.4307 23.3882 30.2653 22.9895 29.1H10.5695C10.1709 30.2653 9.75686 31.4307 9.32752 32.596C8.92886 33.7613 8.56086 34.896 8.22352 36H0.771523C1.96752 32.5653 3.10219 29.3913 4.17552 26.478C5.24886 23.5647 6.29152 20.82 7.30352 18.244C8.34619 15.668 9.35819 13.23 10.3395 10.93C11.3515 8.59933 12.3942 6.33 13.4675 4.122H20.3215C21.3642 6.33 22.3915 8.59933 23.4035 10.93C24.4155 13.23 25.4275 15.668 26.4395 18.244C27.4822 20.82 28.5402 23.5647 29.6135 26.478C30.6869 29.3913 31.8215 32.5653 33.0175 36H25.3355ZM16.7335 11.344C16.5802 11.804 16.3502 12.4327 16.0435 13.23C15.7369 14.0273 15.3842 14.9473 14.9855 15.99C14.5869 17.0327 14.1422 18.1827 13.6515 19.44C13.1915 20.6973 12.7162 22.016 12.2255 23.396H21.2875C20.7969 22.016 20.3215 20.6973 19.8615 19.44C19.4015 18.1827 18.9569 17.0327 18.5275 15.99C18.1289 14.9473 17.7762 14.0273 17.4695 13.23C17.1629 12.4327 16.9175 11.804 16.7335 11.344ZM52.1859 24.086C52.1859 21.97 51.7105 20.2833 50.7599 19.026C49.8092 17.738 48.3985 17.094 46.5279 17.094C45.9145 17.094 45.3472 17.1247 44.8259 17.186C44.3045 17.2167 43.8752 17.2627 43.5379 17.324V29.698C43.9672 29.974 44.5192 30.204 45.1939 30.388C45.8992 30.572 46.6045 30.664 47.3099 30.664C50.5605 30.664 52.1859 28.4713 52.1859 24.086ZM59.1779 23.902C59.1779 25.7727 58.9479 27.4747 58.4879 29.008C58.0279 30.5413 57.3532 31.86 56.4639 32.964C55.5745 34.068 54.4705 34.9267 53.1519 35.54C51.8332 36.1533 50.3152 36.46 48.5979 36.46C47.6472 36.46 46.7579 36.368 45.9299 36.184C45.1019 36 44.3045 35.7393 43.5379 35.402V44.51H36.6839V12.632C37.2972 12.448 38.0025 12.2793 38.7999 12.126C39.5972 11.942 40.4252 11.7887 41.2839 11.666C42.1732 11.5433 43.0625 11.4513 43.9519 11.39C44.8719 11.298 45.7459 11.252 46.5739 11.252C48.5672 11.252 50.3459 11.5587 51.9099 12.172C53.4739 12.7547 54.7925 13.598 55.8659 14.702C56.9392 15.7753 57.7519 17.094 58.3039 18.658C58.8865 20.222 59.1779 21.97 59.1779 23.902ZM79.9476 24.086C79.9476 21.97 79.4723 20.2833 78.5216 19.026C77.5709 17.738 76.1603 17.094 74.2896 17.094C73.6763 17.094 73.1089 17.1247 72.5876 17.186C72.0663 17.2167 71.6369 17.2627 71.2996 17.324V29.698C71.7289 29.974 72.2809 30.204 72.9556 30.388C73.6609 30.572 74.3663 30.664 75.0716 30.664C78.3223 30.664 79.9476 28.4713 79.9476 24.086ZM86.9396 23.902C86.9396 25.7727 86.7096 27.4747 86.2496 29.008C85.7896 30.5413 85.1149 31.86 84.2256 32.964C83.3363 34.068 82.2323 34.9267 80.9136 35.54C79.5949 36.1533 78.0769 36.46 76.3596 36.46C75.4089 36.46 74.5196 36.368 73.6916 36.184C72.8636 36 72.0663 35.7393 71.2996 35.402V44.51H64.4456V12.632C65.0589 12.448 65.7643 12.2793 66.5616 12.126C67.3589 11.942 68.1869 11.7887 69.0456 11.666C69.9349 11.5433 70.8243 11.4513 71.7136 11.39C72.6336 11.298 73.5076 11.252 74.3356 11.252C76.3289 11.252 78.1076 11.5587 79.6716 12.172C81.2356 12.7547 82.5543 13.598 83.6276 14.702C84.7009 15.7753 85.5136 17.094 86.0656 18.658C86.6483 20.222 86.9396 21.97 86.9396 23.902ZM103.718 36V4.122H125.246V10.148H110.894V16.404H123.636V22.292H110.894V29.974H126.304V36H103.718ZM138.101 31.078C139.358 31.078 140.247 30.9553 140.769 30.71C141.29 30.4647 141.551 29.9893 141.551 29.284C141.551 28.732 141.213 28.2567 140.539 27.858C139.864 27.4287 138.837 26.9533 137.457 26.432C136.383 26.0333 135.402 25.6193 134.513 25.19C133.654 24.7607 132.918 24.2547 132.305 23.672C131.691 23.0587 131.216 22.338 130.879 21.51C130.541 20.682 130.373 19.6853 130.373 18.52C130.373 16.2507 131.216 14.4567 132.903 13.138C134.589 11.8193 136.905 11.16 139.849 11.16C141.321 11.16 142.731 11.298 144.081 11.574C145.43 11.8193 146.503 12.0953 147.301 12.402L146.105 17.738C145.307 17.462 144.433 17.2167 143.483 17.002C142.563 16.7873 141.52 16.68 140.355 16.68C138.208 16.68 137.135 17.278 137.135 18.474C137.135 18.75 137.181 18.9953 137.273 19.21C137.365 19.4247 137.549 19.6393 137.825 19.854C138.101 20.038 138.469 20.2527 138.929 20.498C139.419 20.7127 140.033 20.958 140.769 21.234C142.271 21.786 143.513 22.338 144.495 22.89C145.476 23.4113 146.243 23.994 146.795 24.638C147.377 25.2513 147.776 25.9413 147.991 26.708C148.236 27.4747 148.359 28.364 148.359 29.376C148.359 31.768 147.454 33.5773 145.645 34.804C143.866 36.0307 141.336 36.644 138.055 36.644C135.908 36.644 134.114 36.46 132.673 36.092C131.262 35.724 130.281 35.4173 129.729 35.172L130.879 29.606C132.044 30.066 133.24 30.434 134.467 30.71C135.693 30.9553 136.905 31.078 138.101 31.078ZM152.331 23.902C152.331 22.154 152.607 20.5133 153.159 18.98C153.741 17.416 154.569 16.0667 155.643 14.932C156.716 13.7667 158.019 12.8467 159.553 12.172C161.086 11.4973 162.834 11.16 164.797 11.16C166.085 11.16 167.265 11.2827 168.339 11.528C169.412 11.7427 170.455 12.0647 171.467 12.494L170.041 17.968C169.397 17.7227 168.691 17.508 167.925 17.324C167.158 17.14 166.299 17.048 165.349 17.048C163.325 17.048 161.807 17.6767 160.795 18.934C159.813 20.1913 159.323 21.8473 159.323 23.902C159.323 26.0793 159.783 27.766 160.703 28.962C161.653 30.158 163.294 30.756 165.625 30.756C166.453 30.756 167.342 30.6793 168.293 30.526C169.243 30.3727 170.117 30.1273 170.915 29.79L171.881 35.402C171.083 35.7393 170.087 36.0307 168.891 36.276C167.695 36.5213 166.376 36.644 164.935 36.644C162.727 36.644 160.825 36.322 159.231 35.678C157.636 35.0033 156.317 34.0987 155.275 32.964C154.263 31.8293 153.511 30.4953 153.021 28.962C152.561 27.398 152.331 25.7113 152.331 23.902ZM197.945 23.856C197.945 25.7573 197.669 27.5053 197.117 29.1C196.565 30.664 195.767 32.0133 194.725 33.148C193.682 34.252 192.425 35.1107 190.953 35.724C189.511 36.3373 187.886 36.644 186.077 36.644C184.298 36.644 182.673 36.3373 181.201 35.724C179.759 35.1107 178.517 34.252 177.475 33.148C176.432 32.0133 175.619 30.664 175.037 29.1C174.454 27.5053 174.163 25.7573 174.163 23.856C174.163 21.9547 174.454 20.222 175.037 18.658C175.65 17.094 176.478 15.76 177.521 14.656C178.594 13.552 179.851 12.6933 181.293 12.08C182.765 11.4667 184.359 11.16 186.077 11.16C187.825 11.16 189.419 11.4667 190.861 12.08C192.333 12.6933 193.59 13.552 194.633 14.656C195.675 15.76 196.488 17.094 197.071 18.658C197.653 20.222 197.945 21.9547 197.945 23.856ZM190.953 23.856C190.953 21.74 190.523 20.084 189.665 18.888C188.837 17.6613 187.641 17.048 186.077 17.048C184.513 17.048 183.301 17.6613 182.443 18.888C181.584 20.084 181.155 21.74 181.155 23.856C181.155 25.972 181.584 27.6587 182.443 28.916C183.301 30.1427 184.513 30.756 186.077 30.756C187.641 30.756 188.837 30.1427 189.665 28.916C190.523 27.6587 190.953 25.972 190.953 23.856ZM212.914 36.46C210.921 36.4293 209.296 36.2147 208.038 35.816C206.812 35.4173 205.83 34.8653 205.094 34.16C204.389 33.424 203.898 32.55 203.622 31.538C203.377 30.4953 203.254 29.33 203.254 28.042V1.408L210.108 0.303999V26.662C210.108 27.2753 210.154 27.8273 210.246 28.318C210.338 28.8087 210.507 29.2227 210.752 29.56C211.028 29.8973 211.412 30.1733 211.902 30.388C212.393 30.6027 213.052 30.7407 213.88 30.802L212.914 36.46ZM227.729 31.216C228.403 31.216 229.047 31.2007 229.661 31.17C230.274 31.1393 230.765 31.0933 231.133 31.032V25.834C230.857 25.7727 230.443 25.7113 229.891 25.65C229.339 25.5887 228.833 25.558 228.373 25.558C227.729 25.558 227.115 25.604 226.533 25.696C225.981 25.7573 225.49 25.8953 225.061 26.11C224.631 26.3247 224.294 26.616 224.049 26.984C223.803 27.352 223.681 27.812 223.681 28.364C223.681 29.4373 224.033 30.1887 224.739 30.618C225.475 31.0167 226.471 31.216 227.729 31.216ZM227.177 11.16C229.201 11.16 230.887 11.39 232.237 11.85C233.586 12.31 234.659 12.9693 235.457 13.828C236.285 14.6867 236.867 15.7293 237.205 16.956C237.542 18.1827 237.711 19.5473 237.711 21.05V35.31C236.729 35.5247 235.365 35.77 233.617 36.046C231.869 36.3527 229.753 36.506 227.269 36.506C225.705 36.506 224.279 36.368 222.991 36.092C221.733 35.816 220.645 35.3713 219.725 34.758C218.805 34.114 218.099 33.286 217.609 32.274C217.118 31.262 216.873 30.02 216.873 28.548C216.873 27.1373 217.149 25.9413 217.701 24.96C218.283 23.9787 219.05 23.1967 220.001 22.614C220.951 22.0313 222.04 21.6173 223.267 21.372C224.493 21.096 225.766 20.958 227.085 20.958C227.974 20.958 228.756 21.004 229.431 21.096C230.136 21.1573 230.703 21.2493 231.133 21.372V20.728C231.133 19.5627 230.78 18.6273 230.075 17.922C229.369 17.2167 228.143 16.864 226.395 16.864C225.229 16.864 224.079 16.956 222.945 17.14C221.81 17.2933 220.829 17.5233 220.001 17.83L219.127 12.31C219.525 12.1873 220.016 12.0647 220.599 11.942C221.212 11.7887 221.871 11.666 222.577 11.574C223.282 11.4513 224.018 11.3593 224.785 11.298C225.582 11.206 226.379 11.16 227.177 11.16Z" fill="#262626"/>
</svg>
